<svg id="Layer_2" data-name="Layer 2" xmlns="http://www.w3.org/2000/svg" viewBox="0 0 698 768.74"><defs><style>.cls-1{fill:#55dbff;}.cls-2{fill:#07009e;}.cls-3{fill:#f6ff4a;}.cls-4{fill:#2ce5a3;}.cls-5{fill:#7340ff;}.cls-6{fill:#ce0000;}.cls-7{fill:#21ce29;}.cls-8{fill:#ffbf3e;}.cls-9{fill:#ffdcd2;}.cls-10{fill:#17306d;}.cls-11{fill:#06661f;}.cls-12{fill:#020000;}.cls-13{fill:#ffe631;}.cls-14{fill:#e83899;}.cls-15,.cls-16,.cls-17,.cls-18{fill:none;}.cls-15{stroke:#050204;}.cls-15,.cls-17,.cls-18{stroke-miterlimit:10;}.cls-17{stroke:#010705;}.cls-18{stroke:#f4f2f3;}</style></defs><path class="cls-1" d="M697,503.37V768H555.68C402.47,701.91,293.5,557.5,293.5,557.5c8,7,29,1,29,1,18.85-4,81-75.86,82-77h0c108-10,135.26,90.91,184,89C657.13,567.81,692.5,511.1,697,503.37Z" transform="translate(0.5)"/><path class="cls-2" d="M697,502.46v.91c-4.5,7.73-39.87,64.44-108.5,67.13-48.74,1.91-76-99-184-89,0,0,39-65,43-97,3,6,6,0,6,0,0-6,16-30,16-30,12.77-33.41.32-36.15-.12-36.24C498.85,288.31,506.66,266,506.66,266a14.94,14.94,0,0,0,3.34,0S638,209.92,697,502.46Z" transform="translate(0.5)"/><path class="cls-3" d="M697,1V502.46C638,209.92,510,266,510,266a14.94,14.94,0,0,1-3.34,0C475.2,263.05,450,166,450,166c1.91,0,3.82-.12,5.72-.26C511.26,170.56,575.1,109.68,617,60.57c.18-.2.35-.39.51-.59A589.15,589.15,0,0,0,663,1Z" transform="translate(0.5)"/><path class="cls-4" d="M662.78,1H354l.27-.28A5.94,5.94,0,0,1,355,.37h-.3L355,0Z" transform="translate(0.5)"/><path class="cls-4" d="M354,1H662.78a697.61,697.61,0,0,1-45.23,59c-.16.2-.33.39-.51.59-39.62,45.37-100,100.79-161.32,105.17-1.92-.17-3.82-.41-5.72-.74,0,0-23,11-56-53,0,0-13.69-28.86-66.84-19.93C327.4,56.65,333,34.58,339.1,21c0,0,0,0,0,0A103.3,103.3,0,0,1,354,1Z" transform="translate(0.5)"/><path class="cls-3" d="M455.72,165.74C517,161.36,577.42,105.94,617,60.57,575.1,109.68,511.26,170.56,455.72,165.74Z" transform="translate(0.5)"/><path class="cls-5" d="M555.68,768H.5v-.5s114-37,123-84c4.93-25.73,52.57-97.77,111.25-166.73L293.5,557.5S402.47,701.91,555.68,768Z" transform="translate(0.5)"/><path class="cls-6" d="M327.16,92.58v-.51C380.31,83.14,394,112,394,112c33,64,56,53,56,53,1.9.33,3.8.57,5.72.74-1.9.14-3.81.22-5.72.26,0,0,25.2,97.05,56.66,100,0,0-7.81,22.27-37.28,52.22q-5.73,5.83-12.61,12h0c-.55,0-17.33-1.41-50.76-9.28-34-8-54-66-57-76s-15.91-12.66-15.91-12.66c.27-1.19.41-1.84.41-1.84l2.66-25.59A47.67,47.67,0,0,0,338,198c-.24-1.32-.48-2.63-.71-3.93C329.76,151.81,327,118.61,327.16,92.58Z" transform="translate(0.5)"/><path class="cls-7" d="M469.38,318.26c.44.09,12.89,2.83.12,36.24,0,0-16,24-16,30,0,0-3,6-6,0l3-27,8-1s3-5,6-15-7.73-11.22-7.73-11.22Q463.66,324.12,469.38,318.26Z" transform="translate(0.5)"/><path class="cls-8" d="M404.49,481.51c-1,1.13-63.14,73-82,77,0,0-21,6-29-1l-58.75-40.73c23.34-27.42,48.42-54.35,73.25-77.69,26.78-25.17,53.28-46.17,77-59.08,30.85-16.8,54.2-34,71.76-49.72h0s10.73,1.22,7.73,11.22-6,15-6,15l-8,1-3,27c-4,32-43,97-43,97Z" transform="translate(0.5)"/><path class="cls-9" d="M406,321c33.43,7.87,50.21,9.24,50.76,9.28C439.2,346,415.85,363.2,385,380c-23.72,12.91-50.22,33.91-77,59.08L300.5,329.5c15.41-22.66,30-85.59,32.59-97.16,0,0,12.91,2.66,15.91,12.66S372,313,406,321Z" transform="translate(0.5)"/><path class="cls-4" d="M354.65.37h.3a5.94,5.94,0,0,0-.64.35Z" transform="translate(0.5)"/><path class="cls-10" d="M354.65.37l-.34.35-.43.28H27c.14-.41.23-.63.23-.63h-.4L27,0Z" transform="translate(0.5)"/><path class="cls-10" d="M144.09,192.12C103.07,104.08,30.55,33.51,27,27c-5.29-9.69-1.09-23,0-26H353.88C351.4,2.63,345,7.83,339.11,21c0,0,0,0,0,0-20.4,35.57-11.94,71.09-11.94,71.09v.51c-.15,26,2.6,59.23,10.13,101.49l-1.13,10.84c-5.15,15.7-24,57-88.94,111.56q-6,5-12.47,10.18-10.89,8.64-23.32,17.66-11.16,8.08-23.65,16.43-13.86,9.27-29.46,18.82a22,22,0,0,1-3.33-2.17,80.61,80.61,0,0,0,4-9.73C183.28,310,169.94,247.59,144.09,192.12Z" transform="translate(0.5)"/><path class="cls-10" d="M337.29,194.07c.23,1.3.47,2.61.71,3.93a47.67,47.67,0,0,1-1.84,6.91Z" transform="translate(0.5)"/><path class="cls-11" d="M336.16,204.91,333.5,230.5s-.14.65-.41,1.84c-2.59,11.57-17.18,74.5-32.59,97.16l-12-2c-18-10-41.28-11-41.28-11C312.2,261.89,331,220.61,336.16,204.91Z" transform="translate(0.5)"/><path class="cls-4" d="M339.1,21c-6.11,13.6-11.7,35.67-11.94,71.09C327.16,92.07,318.7,56.55,339.1,21Z" transform="translate(0.5)"/><path class="cls-12" d="M288.5,327.5l-6,2c-14-4-47.75-2.85-47.75-2.85q6.51-5.16,12.47-10.18S270.5,317.5,288.5,327.5Z" transform="translate(0.5)"/><path class="cls-13" d="M234.75,516.77c-58.68,69-106.32,141-111.25,166.73-9,47-123,84-123,84v.5H0V425.24c69.81,20.59,146.2-37.52,150.78-41.07C154.71,393.61,199.64,499.83,234.75,516.77Z" transform="translate(0.5)"/><path class="cls-10" d="M159,367.66c5.54-16.24,11-46,5.14-95.16A101.39,101.39,0,0,0,146,225.6c-3.06-4.29-6.53-9.18-10.31-14.55q4-10.11,8.37-18.93C169.94,247.59,183.28,310,159,367.66Z" transform="translate(0.5)"/><path class="cls-14" d="M164.13,272.5c5.82,49.19.4,78.92-5.14,95.16-1.34,3.16-2.78,6.31-4.36,9.45C127.51,355.3,120.5,262.5,120.5,262.5a320.26,320.26,0,0,1,15.22-51.45c3.78,5.37,7.25,10.26,10.31,14.55A101.39,101.39,0,0,1,164.13,272.5Z" transform="translate(0.5)"/><path class="cls-10" d="M155,377.39a22,22,0,0,0,3.33,2.17c-2.4,1.48-4.84,2.95-7.31,4.43A36.72,36.72,0,0,0,155,377.39Z" transform="translate(0.5)"/><path class="cls-14" d="M150.78,384.17c-4.58,3.55-81,61.66-150.78,41.07V1H26.54C15.43,25.43,31,41,31,41c14,38.42,71.38,122.72,104.72,170.05A320.26,320.26,0,0,0,120.5,262.5s7,92.8,34.13,114.61c-1.13,2.3-2.35,4.6-3.62,6.88h0Z" transform="translate(0.5)"/><path class="cls-10" d="M144.09,192.12q-4.36,8.83-8.37,18.93C102.38,163.72,45,79.42,31,41c0,0-15.57-15.57-4.46-40H27c-1.08,3-5.28,16.31,0,26C30.55,33.51,103.07,104.08,144.09,192.12Z" transform="translate(0.5)"/><path class="cls-10" d="M26.82.38h.4S27.13.59,27,1h-.45C26.63.8,26.72.59,26.82.38Z" transform="translate(0.5)"/><path class="cls-14" d="M26.82.38c-.1.21-.19.42-.28.62H0Z" transform="translate(0.5)"/><polyline class="cls-15" points="0.5 425.24 0.5 768 1 768 556.18 768 697.5 768 697.5 503.37 697.5 502.46"/><line class="cls-15" x1="354.54" y1="1" x2="354.38" y2="1"/><line class="cls-15" x1="663.5" y1="1" x2="663.28" y2="1"/><path class="cls-16" d="M456.76,330.28C439.2,346,415.85,363.2,385,380c-23.72,12.91-50.22,33.91-77,59.08-24.83,23.34-49.91,50.27-73.25,77.69-58.68,69-106.32,141-111.25,166.73-9,47-123,84-123,84" transform="translate(0.5)"/><path class="cls-16" d="M506.66,266s-7.81,22.27-37.28,52.22q-5.73,5.83-12.61,12" transform="translate(0.5)"/><path class="cls-16" d="M150.5,383.5s.09.23.28.67c3.93,9.44,48.86,115.66,84,132.6L293.5,557.5" transform="translate(0.5)"/><path class="cls-16" d="M308,439.08,300.5,329.5c15.41-22.66,30-85.59,32.59-97.16.27-1.19.41-1.84.41-1.84l2.66-25.59,1.13-10.84" transform="translate(0.5)"/><path class="cls-17" d="M247.22,316.47s23.28,1,41.28,11l12,2" transform="translate(0.5)"/><path class="cls-17" d="M234.75,326.65s33.75-1.15,47.75,2.85l6-2" transform="translate(0.5)"/><path class="cls-16" d="M333.09,232.34S346,235,349,245s23,68,57,76c33.43,7.87,50.21,9.24,50.76,9.28h0s10.73,1.22,7.73,11.22-6,15-6,15l-8,1-3,27c3,6,6,0,6,0,0-6,16-30,16-30,12.77-33.41.32-36.15-.12-36.24h0" transform="translate(0.5)"/><path class="cls-15" d="M404.5,481.5s39-65,43-97" transform="translate(0.5)"/><path class="cls-15" d="M313.5,493.5s9-11,33-7c0,0,41,6,58-5" transform="translate(0.5)"/><path class="cls-16" d="M697.5,502.5s-.16.3-.5.87c-4.5,7.73-39.87,64.44-108.5,67.13-48.74,1.91-76-99-184-89h0c-1,1.13-63.14,73-82,77,0,0-21,6-29-1,0,0,109,144.41,262.18,210.5l1.71.74" transform="translate(0.5)"/><path class="cls-17" d="M274.5,490.5l27-2s2,0,6,4" transform="translate(0.5)"/><path class="cls-17" d="M293.5,500.5s10,5,17,5c0,0,20-2,23-8" transform="translate(0.5)"/><path class="cls-17" d="M325.5,478.5s-3-2-12,2c0,0-10-3-19,0" transform="translate(0.5)"/><path class="cls-18" d="M327.5,92.5l-.34.08c-6.42,1.66-102.93,26.15-110.66,3.92" transform="translate(0.5)"/><path class="cls-18" d="M231.5,109.5s-51.6,10.07-87.41,82.62q-4.36,8.83-8.37,18.93A320.26,320.26,0,0,0,120.5,262.5s7,92.8,34.13,114.61l.36.28a22,22,0,0,0,3.33,2.17" transform="translate(0.5)"/></svg>