<svg id="Layer_2" data-name="Layer 2" xmlns="http://www.w3.org/2000/svg" viewBox="0 0 966 540"><defs><style>.cls-1{fill:#f4f2f3;}.cls-2{fill:#092035;}.cls-3{fill:none;stroke:#092035;stroke-miterlimit:10;}</style></defs><rect class="cls-1" y="1" width="966" height="538"/><path class="cls-1" d="M520.5,499.5s14,14,26,13a71.89,71.89,0,0,0,24-6.18V537.5h-77c-7-39,0-68,0-68l31.79,8.94Z" transform="translate(0 1)"/><path class="cls-1" d="M212.5,413.5c6,43,8,27,28,73,18.59,42.75,35.45,37.13,57,22.48V537.5h-124V-.5h397v327l-4,4.05s-21.81,40.6-33.84,96.32c0,0-1.16-49.32-6.16-96.32s-21-80-21-80l-87-15-15-16a20.57,20.57,0,0,1-1.86,5.07h0l-.13-.07c-5-16-1-39-1-39,6-12,9-51,9-51-6-40-18-49-18-49-46-33-89,2-89,2-38,62,4,103,7,114s0,25,0,25l-.41,1.22-3.59-1.22-8,19,.71.43-.71,1.57-80,30S206.5,370.5,212.5,413.5Z" transform="translate(0 1)"/><polygon class="cls-1" points="409.5 318.5 427.5 538.5 403.82 538.5 409.5 520.5 381.5 307.5 398.5 316.5 409.59 317.51 409.5 318.5"/><path class="cls-1" d="M367.23,335.21S375.5,493.5,381.5,519.5l7.58,18H358.5l-7.63-144.24c7.58-24.78,12.63-43.76,12.63-43.76Z" transform="translate(0 1)"/><path class="cls-2" d="M637.5,77.5c36-40,112-11,112-11s20,20,22,54l-7,10s11,24-2,56c0,0-9,16-12,16s1,21,1,21-18,6-72,5c0,0-18,2-26.82,3.28l-.18-1.28-5-15-5,4c-9-12-21-46-21-46l1-4c0-9-7-16-7-16S601.5,117.5,637.5,77.5Z" transform="translate(0 1)"/><path class="cls-1" d="M679.5,228.5c54,1,72-5,72-5h1l8,13c-31,1-68,6-68,6-5.19-.74-31.32,4-44.44,6.53-4.57.87-7.56,1.47-7.56,1.47l8-18c.73-.18,2.22-.43,4.18-.72C661.45,230.51,679.5,228.5,679.5,228.5Z" transform="translate(0 1)"/><path class="cls-2" d="M648.06,249c13.12-2.51,39.25-7.27,44.44-6.53,0,0,37-5,68-6,0,0,64,31,80,32,0,0,8,68,7,97s-21,100-21,100-19,3-28-5l6,77h-192v-100s-16,50-28,60a63.16,63.16,0,0,1-14,8.82V326.45l15-50.95Z" transform="translate(0 1)"/><path class="cls-2" d="M525.29,478.44l.21-.94a342.91,342.91,0,0,1,7.16-50.68c12-55.72,33.84-96.32,33.84-96.32l4-4.05V506.32a71.89,71.89,0,0,1-24,6.18c-12,1-26-13-26-13Z" transform="translate(0 1)"/><path class="cls-2" d="M394.82,269.78c6.71-7.57,19.35-22.74,23.68-34.28l87,15s16,33,21,80,6.16,96.32,6.16,96.32a342.91,342.91,0,0,0-7.16,50.68l-.21.94L493.5,469.5s-7,29,0,68h-66l-18-220,.09-1,10.35.94,4.14.93-5.58,8.12s6,11,11,14c0,0,20-11,31-31l-20-15-3.35,4.87S425.5,287.5,422.5,277.5s-17-11-17-11Z" transform="translate(0 1)"/><path class="cls-1" d="M460.5,309.5c-11,20-31,31-31,31-5-3-11-14-11-14l5.58-8.12,13.07-19,3.35-4.87Z" transform="translate(0 1)"/><path class="cls-2" d="M394.82,269.78l10.68-3.28s14,1,17,11,14.65,21.87,14.65,21.87l-13.07,19-4.14-.93-10.35-.94-11.09-1-17-9,2-17-5.73-10,11.89-8.6.84,3.63s1.71-1.79,4.31-4.72Z" transform="translate(0 1)"/><path class="cls-2" d="M381.5,306.5l28,213-5.68,18H389.08l-7.58-18c-6-26-14.27-184.29-14.27-184.29l2.27-8.71Z" transform="translate(0 1)"/><polygon class="cls-2" points="403.82 538.5 403.5 539.5 389.5 539.5 389.08 538.5 403.82 538.5"/><path class="cls-2" d="M309.5,226.5s3-14,0-25-45-52-7-114c0,0,43-35,89-2,0,0,12,9,18,49,0,0-3,39-9,51,0,0-4,23,1,39l.13.07c-2.3,4.71-7.34,12.14-18.13,19.93l1,4.34-.81.19c-10.78,5.53-26.53,0-26.53,0l1.32-4.53-49.41-16.78Z" transform="translate(0 1)"/><path class="cls-1" d="M394.81,269.78c-2.6,2.93-4.31,4.72-4.31,4.72l-.84-3.63-2.16-9.37-3-12.66-1-4.34c10.79-7.79,15.83-15.22,18.13-19.93h0a20.57,20.57,0,0,0,1.86-5.07l15,16c-4.33,11.54-17,26.71-23.68,34.28Z" transform="translate(0 1)"/><path class="cls-2" d="M357.18,249s15.75,5.53,26.53,0l.81-.19,3,12.66,2.16,9.37-11.89,8.6-6.27-11-11-2a26.58,26.58,0,0,1-.95,6.92l-6.93-8.77h0Z" transform="translate(0 1)"/><path class="cls-1" d="M363.5,349.5c-19,2-41-14-41-14l5-20,8,2,34,9-2.27,8.71Z" transform="translate(0 1)"/><path class="cls-2" d="M298.21,245.93a250.44,250.44,0,0,0,33.21,16.18l4.08,30.39,1.35,6.86h0L335.5,313.5v4l-8-2-5,20s22,16,41,14c0,0-5.05,19-12.63,43.76-12.94,42.3-33.24,101.52-48.37,112.24-1.7,1.2-3.36,2.37-5,3.48-21.55,14.65-38.41,20.27-57-22.48-20-46-22-30-28-73s5-136,5-136l80-30Z" transform="translate(0 1)"/><path class="cls-1" d="M352.62,264.65l-1.12,3.85a145.42,145.42,0,0,1-20.08-6.39,250.44,250.44,0,0,1-33.21-16.18l-.71-.43,8-19,3.59,1.22L358.5,244.5,357.18,249l-4.56,15.61Z" transform="translate(0 1)"/><path class="cls-2" d="M350.87,393.26,358.5,537.5h-61V509c1.64-1.11,3.3-2.28,5-3.48C317.63,494.78,337.93,435.56,350.87,393.26Z" transform="translate(0 1)"/><path class="cls-2" d="M348.5,274.5s5-1,3,4-5,10-3,13c0,0,8.22-7.53,11.05-18.07h0a26.58,26.58,0,0,0,.95-6.92l11,2,6.27,11,5.73,10-2,17-12,20-34-9v-4l1.35-14.13h0l.65-6.86S337.5,282.5,348.5,274.5Z" transform="translate(0 1)"/><path class="cls-1" d="M348.5,274.5c-11,8-11,18-11,18l-.65,6.86-1.35-6.86-4.08-30.39a145.42,145.42,0,0,0,20.08,6.39l1.12-3.85,6.93,8.77h0C356.72,284,348.5,291.5,348.5,291.5c-2-3,1-8,3-13S348.5,274.5,348.5,274.5Z" transform="translate(0 1)"/><polyline class="cls-3" points="493.5 538.5 570.5 538.5 570.5 507.32 570.5 327.45 570.5 0.5 173.5 0.5 173.5 538.5 297.5 538.5"/><path class="cls-3" d="M752.5,223.5l8,13c-31,1-68,6-68,6-5.19-.74-31.32,4-44.44,6.53-4.57.87-7.56,1.47-7.56,1.47l8-18c.73-.18,2.22-.43,4.18-.72,8.77-1.27,26.82-3.28,26.82-3.28,54,1,72-5,72-5s-4-21-1-21,12-16,12-16c13-32,2-56,2-56l7-10c-2-34-22-54-22-54s-76-29-112,11-22,76-22,76,7,7,7,16l-1,4s12,34,21,46l5-4,5,15" transform="translate(0 1)"/><path class="cls-3" d="M648.06,249,585.5,275.5l-15,50.95-4,4.05s-21.81,40.6-33.84,96.32a342.91,342.91,0,0,0-7.16,50.68l-.21.94L520.5,499.5s14,14,26,13a71.89,71.89,0,0,0,24-6.18,63.16,63.16,0,0,0,14-8.82c12-10,28-60,28-60v100h192l-6-77" transform="translate(0 1)"/><path class="cls-3" d="M813.5,374.5l-15,86c9,8,28,5,28,5s20-71,21-100-7-97-7-97c-16-1-80-32-80-32" transform="translate(0 1)"/><path class="cls-3" d="M309.5,226.5s3-14,0-25-45-52-7-114c0,0,43-35,89-2,0,0,12,9,18,49,0,0-3,39-9,51,0,0-4,23,1,39" transform="translate(0 1)"/><path class="cls-3" d="M352.62,264.64,357.18,249l1.32-4.53-49.41-16.78-3.59-1.22-8,19,.71.43a250.44,250.44,0,0,0,33.21,16.18,145.42,145.42,0,0,0,20.08,6.39l1.12-3.85" transform="translate(0 1)"/><path class="cls-3" d="M394.82,269.78c6.71-7.57,19.35-22.74,23.68-34.28l-15-16a20.57,20.57,0,0,1-1.86,5.07h0c-2.3,4.71-7.34,12.14-18.13,19.93l1,4.34,3,12.66,2.16,9.37.84,3.63s1.71-1.79,4.31-4.72" transform="translate(0 1)"/><path class="cls-3" d="M359.55,273.42a26.58,26.58,0,0,0,.95-6.92l11,2,6.27,11,5.73,10-2,17-12,20-34-9v-4l1.35-14.13" transform="translate(0 1)"/><path class="cls-3" d="M336.85,299.36l.65-6.86s0-10,11-18c0,0,5-1,3,4s-5,10-3,13c0,0,8.22-7.53,11.05-18.07" transform="translate(0 1)"/><path class="cls-3" d="M335.5,317.5l-8-2-5,20s22,16,41,14l3.73-14.29,2.27-8.71" transform="translate(0 1)"/><polyline class="cls-3" points="331.42 263.11 335.5 293.5 336.85 300.36 336.85 300.37"/><path class="cls-3" d="M363.5,349.5s-5.05,19-12.63,43.76c-12.94,42.3-33.24,101.52-48.37,112.24-1.7,1.2-3.36,2.37-5,3.48-21.55,14.65-38.41,20.27-57-22.48-20-46-22-30-28-73s5-136,5-136l80-30" transform="translate(0 1)"/><polyline class="cls-3" points="297.5 509.98 297.5 538.5 358.5 538.5 350.87 394.26"/><path class="cls-3" d="M418.5,235.5l87,15s16,33,21,80,6.16,96.32,6.16,96.32" transform="translate(0 1)"/><path class="cls-3" d="M424.08,318.38l-5.58,8.12s6,11,11,14c0,0,20-11,31-31l-20-15-3.35,4.87Z" transform="translate(0 1)"/><path class="cls-3" d="M437.15,299.37S425.5,287.5,422.5,277.5s-17-11-17-11l-10.68,3.28h0" transform="translate(0 1)"/><line class="cls-3" x1="389.66" y1="271.87" x2="377.77" y2="280.47"/><path class="cls-3" d="M409.5,317.5l18,220h66c-7-39,0-68,0-68l31.79,8.94.21.06" transform="translate(0 1)"/><path class="cls-3" d="M357.18,249s15.75,5.53,26.53,0" transform="translate(0 1)"/><path class="cls-3" d="M367.23,335.21S375.5,493.5,381.5,519.5l7.58,18,.42,1h14l.32-1,5.68-18-28-213,17,9,11.09,1,10.35.94.56.05" transform="translate(0 1)"/><polyline class="cls-3" points="352.62 265.64 352.62 265.65 359.55 274.42 359.55 274.43"/><line class="cls-3" x1="419.94" y1="318.45" x2="424.08" y2="319.38"/><polyline class="cls-3" points="358.5 538.5 389.08 538.5 403.82 538.5 427.5 538.5"/></svg>