<svg id="Layer_1" data-name="Layer 1" xmlns="http://www.w3.org/2000/svg" viewBox="0 0 1026 724"><defs><style>.cls-1{fill:#f4f2f3;}.cls-2{fill:#efdb25;stroke:#efdb25;}.cls-2,.cls-4,.cls-6,.cls-7{stroke-miterlimit:10;}.cls-3{fill:#1b1b1b;}.cls-4,.cls-5{fill:#092035;}.cls-4{stroke:#092035;}.cls-6,.cls-7{fill:none;stroke:#f4f2f3;}.cls-6{stroke-width:2px;}.cls-7{stroke-width:3px;}</style></defs><rect class="cls-1" x="2" y="1" width="1024" height="723"/><rect class="cls-2" x="198.5" y="136.5" width="826" height="409"/><path class="cls-3" d="M1024,544.81c-1-.06-1.91-.17-2.86-.17H337l-.1.61,7.19,2.49L333.82,558l.19.44c.66-.1,1.31-.22,2-.31a9.2,9.2,0,0,1,2.82-.3,39,39,0,0,1,12.94,4.89c9,5.44,17.34,12,25.74,18.34a126.37,126.37,0,0,1,19,18.24c2.18,2.52,4.49,4.93,6.93,7.59-.52.06-1.11.32-1.43.13a8.19,8.19,0,0,1-2-1.68c-6.68-7.75-13.38-15.5-21.52-21.79-5.69-4.4-11.53-8.6-17.29-12.91a95.71,95.71,0,0,0-12.25-7.94,40.37,40.37,0,0,0-9.93-3.46,8.2,8.2,0,0,0-2.59.16c-.86.09-1.72.31-2.59.32-2.7,0-3,.16-5.44,2.71l4.07-.8.25.37c-.3.35-.54.89-.92,1a22.52,22.52,0,0,1-4.17,1,106.28,106.28,0,0,1-26.07-.22c-8.55-1.13-17.12-2.12-25.69-3.19-.79-.1-1.78.16-2.29-1a2.79,2.79,0,0,1,2.49-.4c9.75,1.23,19.5,2.53,29.25,3.7a74.61,74.61,0,0,0,15.09.43c1-.09,2.07-.15,3.11-.2,1.33-.08,2.6,0,3.36-1.6.38-.83,1.58-1.28,2.43-1.89,3.52-2.54,10.19-8.75,12.05-11.3a21.27,21.27,0,0,0-2.32-1c-13.84-4.15-27.67-8.36-41.56-12.36-4.91-1.41-9.93-2.45-14.95-3.37a44.65,44.65,0,0,0-20.19,1.18c-.9.25-1.7.58-2.09-.61.12-.19.18-.41.28-.43,5-1,10-2.39,15.12-2.22a83.47,83.47,0,0,1,18.18,3.05c6.58,1.68,13.1,3.56,19.62,5.43,4.69,1.35,9.3,2.91,14,4.2a25,25,0,0,0,6.58,1q163,.08,326.06,0H1022.8c.4,0,.8,0,1.2,0Z" transform="translate(2 1)"/><path class="cls-3" d="M1024,136.32c-1.59.05-3.17.12-4.76.12H210.45c-3.51,0-7,.07-10.55.09-.85,0-1.71-.09-2.54-.14-.21-1.38.64-1.32,1.32-1.33q3.6-.06,7.2-.05c16.15,0,32.31.08,48.46.08h763.92c1.91,0,3.83-.15,5.74-.23Z" transform="translate(2 1)"/><path class="cls-3" d="M-.08,543.37q18.23,0,36.46-.06H198.8c.06-1.11.16-2,.15-3q-.28-40.32-.61-80.63-.56-72.47-1.13-144.94-.53-65.26-1.11-130.53-.19-22.08-.35-44.16c0-1,.15-2,.26-3.22,1.3.83,1,1.78,1,2.57.13,8.55.26,17.11.33,25.67q.52,64.43,1,128.86.6,77.86,1.2,155.74c.18,21.75.43,43.51.64,65.26q.12,12.72.23,25.44c0,.85,0,1.71,0,2.72H261.5c1-1-.68-2.57,1-3.72.31,1.13.55,2.1.83,3.05,1.17,4,2.28,8,3.55,11.93.81,2.49,1.72,5,4.31,6.64a1.75,1.75,0,0,1-2.73-.49,13.61,13.61,0,0,1-1.87-3.32c-1.3-3.52-2.48-7.08-3.68-10.64-.65-1.92-.64-2-2.65-2-19.19,0-38.39,0-57.58,0-1.93,0-3.82.44-5.67-.42a2.45,2.45,0,0,0-1.18-.07c-2.23.13-4.45.42-6.67.42q-92.85,0-185.7,0c-1.18,0-2.37-.19-3.56-.29Z" transform="translate(2 1)"/><path class="cls-3" d="M195.71,0c.1,3.91.25,7.82.28,11.72q.47,59.6.91,119.19c0,1.17,0,2.34,0,3.67-1.18-.23-1.18-.9-1.19-1.5,0-2.08,0-4.16-.05-6.23l-1-122.79c0-1.35,0-2.71.05-4.06Z" transform="translate(2 1)"/><path class="cls-3" d="M685.63,524.48c1.36-.72,1.83.15,2.26.86a32.17,32.17,0,0,1,1.68,3.18c1.3,2.81,3.69,4.54,6.08,6.28a3.31,3.31,0,0,0,1.35.38c3.54.59,7.07,1.24,10.62,1.71a52.12,52.12,0,0,0,7.37.55,61.9,61.9,0,0,1,10.27.5,61,61,0,0,0,7.66.26c3.44.09,6.87.15,10.31.27,5.51.18,11,.37,16.53.62,5.35.23,10.69.62,16,.77,6.15.17,12.31.07,18.46.23a93.62,93.62,0,0,0,14.6-.33,8.42,8.42,0,0,1,2.4-.07c3.57.64,6.59-.75,9.4-2.62,2-1.35,2.86-3.65,3.94-6-3.22-1.26-5.92-2.86-9.33-2.75a22,22,0,0,1-6.1-1.06c-8.08-2.09-16.34-2.92-24.62-3.65-1.67-.15-3.32-.48-5-.69-3.17-.41-6.33-.89-9.51-1.16-6.13-.52-12.26-.95-18.4-1.37-11.42-.8-22.82-1.23-34.23.3-3.7.5-7.5.28-11.24.48a111.84,111.84,0,0,0-18.05,2c-1.15.25-1.73-.36-2-1.45.28-.17.46-.39.66-.4a44.7,44.7,0,0,0,4.49-.16,125.09,125.09,0,0,1,22.21-1.58,28.12,28.12,0,0,0,4.3-.25c12.21-1.62,24.41-1.07,36.62,0,4.78.41,9.58.59,14.36,1,3.18.25,6.35.65,9.52,1,3.64.42,7.28.95,10.93,1.3a164.53,164.53,0,0,1,19.62,3.14c1.78.39,3.59.65,5.66,1,1.36-2.2,2.7-4.24,3.93-6.36,1.68-2.89,3.35-5.8,4.89-8.78,1.42-2.76,2.77-5.57,4-8.43a120.81,120.81,0,0,1,8.49-15.82c2.2-3.61,4.41-7.22,6.6-10.84a12.43,12.43,0,0,0,.9-2,40.48,40.48,0,0,1,5.58-10c2.52-3.39,4.63-7.08,6.92-10.64.82-1.27,1.56-2.62,2.5-3.81a57.6,57.6,0,0,0,6.12-10.53c1.4-2.86,3.27-5.48,4.93-8.21,2.44-4,4.85-8.08,7.3-12.1,1.25-2,2.55-4,3.82-6.06.55-.88,1-1.8,1.64-2.65.76-1.08,1.59-2.12,2.55-3.38l7.55,6.61a1.7,1.7,0,0,1,.36,2.19c-2.61,5.74-5.19,11.48-8.83,16.7a44.07,44.07,0,0,0-3.56,6.77,62.72,62.72,0,0,1-5.86,11c-1.07,1.47-1.69,3.26-2.62,4.84-1.81,3.1-3.71,6.15-5.53,9.25-2.88,4.88-5.7,9.8-8.59,14.67-1.1,1.85-2.37,3.6-3.53,5.42-1,1.62-2,3.28-3,4.92-3,4.91-6,9.81-8.89,14.76-1.21,2.06-2.07,4.33-3.28,6.39-2.54,4.34-5.21,8.61-7.82,12.92a6.1,6.1,0,0,0-.68,1.52c-1.17,4.25-3.91,7.62-6.16,11.27-.16.27-.34.64-.59.73-3.67,1.33-6.63,4.48-11,4-2.27-.27-4.61.22-6.93.31s-4.47.16-6.71.13c-9.1-.12-18.21-.24-27.31-.46-4-.1-8-.46-12-.7-1.59-.1-3.19-.22-4.79-.25-9-.18-18.06-.33-27.09-.52a16.71,16.71,0,0,1-3.08-.36,38.13,38.13,0,0,0-11-.43,24.88,24.88,0,0,1-5.22-.4c-4-.56-7.88-1.2-11.82-1.81a2.6,2.6,0,0,1-1.15-.26c-1.68-1.29-3.6-2.42-4.88-4A86.83,86.83,0,0,1,685.63,524.48Zm140.6,5.95a7.23,7.23,0,0,0,2-3.3,21.47,21.47,0,0,1,1.82-4.4c2.16-3.72,4.56-7.31,6.7-11,2.22-3.88,4.17-7.91,6.37-11.8,1.21-2.15,2.78-4.1,4.05-6.22,4.17-7,8.22-14.05,12.4-21,3.12-5.2,6.41-10.3,9.53-15.5,1.68-2.8,3.18-5.71,4.76-8.58,1.11-2,2.26-4,3.32-6.07,1.67-3.26,3.18-6.61,4.94-9.83,1.6-2.94,3.54-5.69,5.13-8.64s2.82-5.86,4.27-8.93l-6.86-5.8c-2,3-4.07,5.71-5.76,8.64-3,5.19-5.73,10.51-9.27,15.37a39.7,39.7,0,0,0-2.62,4.27c-2,3.71-4,7.46-6.06,11.15-.7,1.24-1.7,2.31-2.49,3.51-3.39,5.12-6.79,10.24-10.11,15.41-1.08,1.67-2,3.46-2.88,5.23s-1.5,3.35-2.4,4.95c-1.25,2.22-2.68,4.34-4,6.54-1,1.64-1.87,3.34-2.81,5-2.08,3.68-4.47,7.22-6.18,11.07a244.51,244.51,0,0,1-11.38,22.14c-.77,1.35-1.45,2.75-2.17,4.12C820,528,823.27,528.56,826.23,530.43Z" transform="translate(2 1)"/><path class="cls-3" d="M532.44,470.86c.15-1.29.76-1.51,1.83-1.29,6.88,1.42,13.76,2.85,20.67,4.16,6.27,1.2,12.6,2.13,18.73,4A61.51,61.51,0,0,1,593.27,488a113.13,113.13,0,0,0,13.5,9.1,141.24,141.24,0,0,0,13.92,6.38c3.18,1.36,6.26,0,9.35-.69,5.06-1.09,10-2.78,15.27-2.73a2.68,2.68,0,0,0,1.18-.1c4-2.12,8.3-1,12.48-1.32,2.15,1.11,4.13.12,6.2-.42a7.09,7.09,0,0,1,6.08,1.49,62,62,0,0,1,12.68,12.64,26.84,26.84,0,0,1,2.44,3.06,10.54,10.54,0,0,1-1.55-1c-2.82-2.83-5.52-5.78-8.43-8.51a63.57,63.57,0,0,0-6.88-5.56,4.71,4.71,0,0,0-5.22-.36c-1.75,1-3.71.76-5.63.78-2.23,0-4.46.1-6.69.17a39.83,39.83,0,0,1-4.07.18,32.19,32.19,0,0,0-9.48,1.12c-3.19.74-6.35,1.58-9.53,2.36-1.32.32-2.35,1.52-4,1.06s-3.67-.46-5.34-1.13c-3.77-1.51-7.44-3.27-11.12-5-5-2.31-9.26-5.65-13.73-8.72-3.16-2.17-6.11-4.7-9.43-6.58a74.51,74.51,0,0,0-10.26-4.5c-6.23-2.39-12.87-3.13-19.35-4.47-5-1-10-2.14-15-3.1-2.27-.44-4.59-.6-6.89-.9A11.35,11.35,0,0,1,532.44,470.86Z" transform="translate(2 1)"/><path class="cls-3" d="M523.9,506.47a10.57,10.57,0,0,1,6.75,2.95,7.91,7.91,0,0,0,4.61,2.34c5.28.67,9.8,3.3,14.31,5.86a19,19,0,0,0,6.66,2.54c3.72.54,7.44,1,11.17,1.44q9.39,1.15,18.78,2.28c8.57,1,17.16,2,25.81,1.6,3.47-.18,6.91-1.13,10.36-1.76.78-.14,1.53-.39,2.47-.64.19.55.35,1,.57,1.64a14.07,14.07,0,0,0,1.54.13c5.18-.14,10.36-.39,15.54-.38,2.14,0,4.26.61,6.41.82,3.49.34,7,.53,10.5.86,3.25.31,6.35-.47,9.47-1.14.47-.1.86-.58,1.27-.87.78,1.41.67,1.63-.75,2.13a28.78,28.78,0,0,1-14.15,1.09c-3.22-.49-6.54-.27-9.76-.76-6.77-1-13.55-.12-20.32-.49-.85,0-1.68-.35-2.53-.46a4.86,4.86,0,0,0-1.82,0c-7.91,1.91-15.88,1.46-23.85.65-6-.61-12.06-1.38-18.09-2-6.19-.68-12.38-1.39-18.57-2a27.09,27.09,0,0,1-11.79-3.63c-1.23-.75-2.56-1.32-3.79-2.06A26,26,0,0,0,534.35,513a7.47,7.47,0,0,1-3.79-1.92c-1.78-1.44-3.46-3.11-6-3.12C523.79,508,523.41,507.45,523.9,506.47Z" transform="translate(2 1)"/><path class="cls-3" d="M397.93,314c-1.46,1.4-2.86,2.69-4.18,4.06a1.87,1.87,0,0,0-.33,1.33,3.09,3.09,0,0,1-2.73,3.63,40.39,40.39,0,0,0-10.92,4.18,3.4,3.4,0,0,1-1.14.32,5.58,5.58,0,0,1-1.17-.13,46.33,46.33,0,0,1,.35-11.47c1.24,1.44.7,3.13.78,4.7s0,3.33,0,5.36c2.11-.88,3.89-1.7,5.72-2.38a48.89,48.89,0,0,1,5-1.57c2.16-.54,2.66-1,2.7-3.25,0-2.75,0-5.51,0-8.64-1.58.53-2.77.9-3.94,1.33-3,1.12-6,2.29-9.28,2.08a18.55,18.55,0,0,1-2.19-.37v-.59a4,4,0,0,1,1.36-.39,19.24,19.24,0,0,0,9.29-1.91,21.18,21.18,0,0,1,4.08-1.34,9.29,9.29,0,0,1,2.82.44c3.13-6.59,6.9-13.4,6.51-21.51-.08-1.58-.41-3.15-.54-4.74-.07-.82,0-.83,1-1.49a26.92,26.92,0,0,1-1.25,18.15c-1.82,4.17-3.73,8.3-5.66,12.42a4.61,4.61,0,0,0-.63,3.55c1.74-.69,2.69-2.2,3.83-3.45.26-.28,0-1,0-1.58,0-1.29-.62-2.67.55-4,.63.67,1.18,1.27,1.8,1.92l-1.15,1.87c.6-.07.93,0,1.1-.15a28.28,28.28,0,0,1,7.53-4.61c.71-.25,1.45-.38,2.35-.62-.08,1.41-1.05,1.37-1.66,1.75-2.3,1.42-4.59,2.87-6.9,4.26a2.68,2.68,0,0,0-1.08,3.87c1.25,2.67,2.44,5.38,3.9,7.93,1.33,2.34,3,4.51,4.49,6.76a3.06,3.06,0,0,1,.17.82,2.49,2.49,0,0,1-2.64-1.6c-2.63-4.55-5.94-8.74-7.33-13.94A4.78,4.78,0,0,0,397.93,314Z" transform="translate(2 1)"/><path class="cls-3" d="M407.22,258.05c-1.09-1.57-2-3-3-4.25A1.88,1.88,0,0,0,402,253a3.43,3.43,0,0,1-2.4-.71c-3.82-2.46-7.59-5-11.38-7.54-.7-.46-1.42-.89-2.52-1.58.55,2.95,3.44,3.88,3.83,6.63-.6-.22-1.12-.25-1.35-.53a58,58,0,0,0-3.73-4.63,48.43,48.43,0,0,0-5.05-3.9c-.31-.22-.81-.18-1.12-.41-3.33-2.55-7.45-2.46-11.24-3.55-4.63-1.34-9.29-1.12-14-1.11a9.58,9.58,0,0,0-2.75.61c-2,.62-3.92,1.28-5.86,2s-4.15,1.59-6.26,2.24c-4.34,1.33-7.69,4.48-11.75,6.23a26.29,26.29,0,0,1-8.75,2.25c-4.85.29-9.73-.1-14.6-.24-.75,0-1.63,0-1.81-1.29a9.65,9.65,0,0,1,1.39-.18c4.87.13,9.76.59,14.6.3,3.42-.21,7-.69,10-2.94a32.92,32.92,0,0,1,5.37-3.11c3.63-1.78,7.22-3.63,11.24-4.5,2-.44,3.87-1.37,5.83-2a14.74,14.74,0,0,1,3.69-.74c2.64-.12,5.28-.12,7.92,0a25.3,25.3,0,0,1,4.22.63c3.11.66,6.2,1.37,9.29,2.1a15.44,15.44,0,0,1,2,.78c1.08.44,2,1.09,3.39.52.56-.23,1.61.42,2.29.88,4.69,3.17,9.29,6.47,14,9.58,1.16.76,2.72.87,4,1.46a12.39,12.39,0,0,1,2.95,1.9c1.27,1.08,2.42,2.32,3.6,3.51C407.77,256.31,408.29,257.06,407.22,258.05Z" transform="translate(2 1)"/><path class="cls-3" d="M406.3,645.31c3.17,1.67,6.43.74,9.59,1a21.29,21.29,0,0,0,2.88,0,6.32,6.32,0,0,1,6.09,3.45q3.57,5.93,7.12,11.87a4.32,4.32,0,0,1,.39,1.13,7.11,7.11,0,0,0,2.84,4.31c2.89,2.08,6,3.62,9.71,3.42a3.48,3.48,0,0,0,1.77-.54c3.2-2.26,6.48-4.42,8.76-7.73a3.45,3.45,0,0,1,1-1,23.66,23.66,0,0,0,5.82-4.91c.07-.08.3,0,.79,0-.22.64-.26,1.32-.61,1.68-1.12,1.13-2.35,2.13-3.54,3.19L455.74,664c-1.82,1.67-3.62,3.36-5.45,5-.41.37-1,.56-1.38.94-2.67,2.66-5.79,2.38-8.88,1.16-2.27-.9-4.64-1.72-6.4-3.63a10,10,0,0,1-2.29-3.59,15.89,15.89,0,0,0-1.43-2.74c-2.18-3.79-4.31-7.6-6.58-11.33a4.5,4.5,0,0,0-4-2.16c-1.84,0-3.68,0-5.52,0-2.77-.09-5.54-.25-8.13-.37a37.41,37.41,0,0,1-2-3.57c-1.45-3.41-4.51-5.27-7.14-7.55a7.84,7.84,0,0,0-3-1.18c-4.28-1.35-8.72-.43-13.05-1.24-3-.57-6.17-.11-9.47-.11-.28-.68.34-1.2.73-1.65,1.24.1,2.33.25,3.43.27,2.71,0,5.43-.26,8.08.65a8.85,8.85,0,0,0,2.14.12c3.17.2,6.35.38,9.52.63a2.43,2.43,0,0,1,1.29.54,70,70,0,0,1,6.75,5.71C404.3,641.42,405.17,643.48,406.3,645.31Z" transform="translate(2 1)"/><path class="cls-3" d="M378,366.7l2.3,3.77-1.35.82c.12,2.24.19,4.7.45,7.14a2.61,2.61,0,0,0,1.16,1.62,61,61,0,0,0,5.4,3.06,5.54,5.54,0,0,0,1.92.24l3,3.69a2.53,2.53,0,0,0,.11,2.74,25,25,0,0,1,1.37,5.05c.3,1.16.62,2.31.94,3.46a11,11,0,0,1,.73,4.43,8.89,8.89,0,0,0,.73,3c.14.5.3,1,.58,1.94-.73-.32-1.23-.38-1.39-.65a7.71,7.71,0,0,1-1-2.18c-.86-3.57-1.66-7.16-2.48-10.73-.16-.71-.36-1.4-.48-2.11-.94-5.4-4.6-8.34-9.34-10.3-.12-.05-.3,0-.6.05a7.1,7.1,0,0,0,2.31,5.36c-.73.86-1.41.52-1.72,0a10.64,10.64,0,0,1-1.82-3.8,4.23,4.23,0,0,0-3.27-3.82c-4.36-1.55-8.7-3.19-12.93-5.06-4.59-2-9.15-4.14-13.54-6.56a40.94,40.94,0,0,0-14.7-4.72c-1-.13-1.48-.44-1.17-1.68.49.05.94,0,1.37.13,2.57.58,5.13,1.2,7.71,1.76,3.34.72,6.13,2.68,9.07,4.24a134.77,134.77,0,0,0,18.41,8c1.87.66,3.65,1.6,5.49,2.37.78.32,1.61.52,2.82.9-.4-3.14,0-5.89-1-8.63-.36-1,.17-2.34.3-3.53Z" transform="translate(2 1)"/><path class="cls-3" d="M399.59,421.77a6.09,6.09,0,0,1,.42,1.51c0,6,1.35,11.89,2,17.84,1,9.54,2,19.08,2.95,28.62.72,7,1.51,14,2.12,21,.52,6,.82,12.12,1.21,18.18.31,4.62.54,9.25,1,13.86a32.65,32.65,0,0,0,1.2,5.11c.3,1.13.33,1.12-.12,2.71a7.62,7.62,0,0,1-.93-1.39,38.06,38.06,0,0,1-2-10.56c-.29-3.74-.34-7.51-.62-11.25q-1.05-13.86-2.24-27.71c-.54-6.37-1.06-12.75-1.76-19.1-.88-8.1-2-16.18-2.89-24.27-.47-4-.8-8.1-1.15-12.16a15.69,15.69,0,0,1,.15-2.26Z" transform="translate(2 1)"/><path class="cls-3" d="M275.67,562c1.13,1.3,2.23,2.62,3.38,3.89,5.22,5.72,10.31,11.56,15.72,17.08,3.29,3.36,7.14,6.15,10.64,9.3a135.71,135.71,0,0,0,20.22,15.29c4.63,2.82,9.59,5.08,14.41,7.58l14.46,7.49c1.56.8,3.14,1.57,4.69,2.41a9.76,9.76,0,0,1,1.28,1c-.93.93-1.63.38-2.28,0-3-1.6-6-3.28-9.09-4.84-5.68-2.91-11.37-5.82-17.11-8.63a87.92,87.92,0,0,1-16.93-10.8c-6.56-5.34-13.11-10.69-19.5-16.23-3.8-3.29-7.37-6.86-9.8-11.37a4.33,4.33,0,0,0-.95-1.06c-2.42-2.3-4.95-4.49-7.24-6.92a19.76,19.76,0,0,1-2.32-4Z" transform="translate(2 1)"/><path class="cls-3" d="M295.23,426.29c1,1.11,1,1.72.15,2.58l-5.57,5.55a3.55,3.55,0,0,0-.64.71c-1.67,3.16-3.34,6.32-5,9.5a6.42,6.42,0,0,0-.6,1.81c-1,5.54-3.14,10.73-4.8,16.06s-2.92,10.45-4.33,15.69a303.24,303.24,0,0,0-6.37,30.25c-.82,5.12-1.09,10.33-1.67,15.49-.13,1.22-.48,2.42-.73,3.63l-.51.06c-.22-.31-.66-.65-.62-.93,1.22-9.82,1.93-19.72,4.13-29.4,1.74-7.63,3.71-15.21,5.31-22.88,1.66-7.93,4.79-15.39,7-23.14a32.08,32.08,0,0,0,1-3.71,20.44,20.44,0,0,1,3.32-8.15c2.61-3.82,5-7.78,8.35-11.05A17.37,17.37,0,0,0,295.23,426.29Z" transform="translate(2 1)"/><path class="cls-3" d="M306.23,413.47a13.94,13.94,0,0,1,.56-5.52,82.86,82.86,0,0,1,6.79-16.56c.9-1.69,1.79-3.39,2.8-5a20.54,20.54,0,0,1,2.21-2.81c.63-.71,1.37-1.22,1.21-2.42-.09-.6.51-1.3.83-1.94,2.64-5.29,5.3-10.56,6.74-16.35,1.25-5,2.59-10,3.83-15.05a14.75,14.75,0,0,0,.36-3.32c0-5,0-9.91,0-14.87,0-.82-.29-1.77.78-2.54.22.48.56.85.56,1.22,0,6.08.11,12.16-.07,18.23-.05,1.77-.85,3.52-1.32,5.27-.15.54-.39,1.06-.52,1.6-.7,2.86-1.4,5.72-2.06,8.6a68.11,68.11,0,0,1-6.47,16.45,10.79,10.79,0,0,0-.42,1.05c1.26,0,1.82-2.06,3.45-.92-1.79,1.82-3.57,3.49-5.19,5.31a29.17,29.17,0,0,0-3.94,5,110,110,0,0,0-5.68,11.59c-1.34,3.3-2.08,6.85-3.09,10.28-.28.95-.57,1.9-.85,2.85Z" transform="translate(2 1)"/><path class="cls-3" d="M288,343.25c-1.32-.4-1.3-1.28-1.3-2a49.7,49.7,0,0,1,.2-6.23c.86-6.57,1.58-13.18,2.87-19.67,1.8-9.08,4.06-18.08,6.17-27.1.59-2.56,1.35-5.08,2-7.62a32.31,32.31,0,0,1,5.06-11.29,22.82,22.82,0,0,0,1.56-3.22,38.72,38.72,0,0,1,7-9.89,5.89,5.89,0,0,1,2.34-1.1c.32-.09.78.25,1.32.44a28.38,28.38,0,0,0-3.24,2.25c-2.5,2.29-4.1,5.26-5.81,8.13-1.06,1.77-2,3.6-3,5.44a47.55,47.55,0,0,0-2.86,6c-1.09,3.16-2,6.4-2.78,9.65-2.08,8.62-4.23,17.22-6,25.9a193.4,193.4,0,0,0-3.59,25.61C288,340,288,341.53,288,343.25Z" transform="translate(2 1)"/><path class="cls-3" d="M502.37,443.64c-1.1.79-1.59.08-2-.41a69,69,0,0,1-4.69-5.44,115.2,115.2,0,0,0-13.32-15.35,40.42,40.42,0,0,0-6.25-4.76c-2.81-1.83-5.78-3.39-8.66-5.1a27.81,27.81,0,0,0-10.13-3.48,18.24,18.24,0,0,1-7.45-2.43,5.63,5.63,0,0,0-2-.6,103.63,103.63,0,0,1-17.62-5.18l1-1.95a27.5,27.5,0,0,0,9.23,3.95c3.91,1,8,1.48,11.67,3.36a14.6,14.6,0,0,0,4.3,1.32,31.7,31.7,0,0,1,12.77,4.48,75.6,75.6,0,0,0,7,4.08,33.9,33.9,0,0,1,10.22,8.55c4.12,4.77,8.06,9.68,12.1,14.52.76.92,1.59,1.78,2.38,2.68C501.4,442.44,501.87,443,502.37,443.64Z" transform="translate(2 1)"/><path class="cls-3" d="M511.29,441.65a12.78,12.78,0,0,1,3.1,0c3.27,1,6.51,2.16,9.74,3.3a3.11,3.11,0,0,1,2.19,2.86,8.06,8.06,0,0,0,.53,2.32c1.76,4.49,1.89,9.2,2.06,13.92.21,5.75.43,11.5.75,17.25.25,4.47-.82,8.75-1.84,13-.59,2.44-2,4.68-3,7-1.28,3.09-2.19,6.35-4.29,9.06-.3.37-.54.87-.94,1.06s-.83-.05-1.26-.09c.06-.41,0-1.05.21-1.21,1.83-1.25,2.56-3.21,3.38-5.08a91.61,91.61,0,0,0,4.2-10.18,43.86,43.86,0,0,0,2-10.77c.22-5.42-.21-10.87-.47-16.29-.21-4.23-.42-8.47-1-12.66a56,56,0,0,0-1.93-7.65,1.48,1.48,0,0,0-.68-.92c-2.13-.86-4.26-1.75-6.45-2.44-1.81-.56-3.7-.83-5.55-1.29C511.93,442.85,511.81,442.44,511.29,441.65Z" transform="translate(2 1)"/><path class="cls-3" d="M297.72,423.18c.61-1.23.85-2.58,1.63-3.09,2.78-1.81,5.16-4.27,8.49-5.21,3.07-.87,6.12-1.82,9.16-2.8,1.51-.48,3-1.07,4.44-1.7,2.11-.91,5.36-.28,6.69,1.69,2.05,3,3.95,6.19,5.78,9.37,3.73,6.52,7.51,13,12.21,18.9a90.9,90.9,0,0,0,7,7.12,5.35,5.35,0,0,1,.46.67c-1,.86-1.71.18-2.27-.35a68.16,68.16,0,0,1-5.21-5.27c-5.22-6.21-9.24-13.21-13.29-20.19-1.76-3-3.57-6.06-5.47-9-1.22-1.9-2.64-2.26-4.73-1.6-3.27,1-6.57,2-9.83,3-2.13.68-4.23,1.46-6.33,2.22a12.3,12.3,0,0,0-6.17,5.38A2,2,0,0,1,297.72,423.18Z" transform="translate(2 1)"/><path class="cls-3" d="M297.39,324.1l-1.64.45-.95-1.87c2.11-1,2.92-.82,3.91,1.15a62.1,62.1,0,0,1,5.38,13.53c1.34,5.66,3,11.25,4.58,16.84a55.51,55.51,0,0,1,2.2,14.65c.07,6,.12,12-.95,17.92a16.1,16.1,0,0,1-1,3.19c-.12.27-.75.34-1.14.5-.08-.36-.35-.84-.2-1,1.29-1.89,1.3-4.1,1.48-6.22.71-8.14,1-16.29-.64-24.36-.66-3.2-1.69-6.32-2.58-9.47-1.69-6-3.28-12-5.15-17.93A63.7,63.7,0,0,0,297.39,324.1Z" transform="translate(2 1)"/><path class="cls-3" d="M329.74,528.17a20.72,20.72,0,0,1,1.08-2c5.05-7.24,8.68-15.25,12.49-23.16a128.89,128.89,0,0,0,9.95-30.16,43.89,43.89,0,0,0,.91-5.68,25.18,25.18,0,0,0-.27-4.23c-.07-.84-.4-1.72.67-2.52.29.53.71,1,.76,1.42a20.24,20.24,0,0,1,.24,4.52,108.91,108.91,0,0,1-8.77,32c-3.35,7.5-7.12,14.81-10.84,22.14a72.69,72.69,0,0,1-4.34,6.87,8.08,8.08,0,0,1-1.24,1.24C330.16,528.49,330,528.33,329.74,528.17Z" transform="translate(2 1)"/><path class="cls-3" d="M327.42,308.79c-2.75-.49-3.56-.08-4.63,2.41a7.06,7.06,0,0,0-.55,2.06c-.4,4.59-.22,9.13,1.68,13.4a29.21,29.21,0,0,0,2.68,4.2c.41.62,1.27,1,.93,2.08-1.09.07-1.57-.72-2.12-1.33-2.93-3.22-4.07-7.19-4.46-11.39a55.67,55.67,0,0,1-.08-6.46,8.21,8.21,0,0,1,2-5.26c1.07-1.28,2.15-2.38,4.21-1.21-.73-5.58-2.2-10.74-2.07-16.08,0-.14.34-.27.55-.43,1.13.54,1,1.7,1,2.51.26,8.23,2.36,16.08,4.84,23.84a35.66,35.66,0,0,0,2.61,5.9c1.2,2.24,1.94,2.48,4.79,2-.29.6-.38,1.16-.69,1.37a2.51,2.51,0,0,1-3.62-.63,30,30,0,0,1-3.58-6.16C329.59,316.16,328.62,312.53,327.42,308.79Z" transform="translate(2 1)"/><path class="cls-3" d="M464.92,460a5.58,5.58,0,0,1,.38,1.29c.23,3.51.37,7,.62,10.52a195.36,195.36,0,0,1-.13,32.09,102.9,102.9,0,0,1-4.27,20.38,13.82,13.82,0,0,1-1.26,2.84c-.17.29-.78.33-1.33.31,3-6.87,4.16-14.07,5.21-21.23a139.19,139.19,0,0,0,1.07-17,162.42,162.42,0,0,0-1.32-24.64,22,22,0,0,1-.15-3.35,4.15,4.15,0,0,1,.57-1.33Z" transform="translate(2 1)"/><path class="cls-3" d="M665.55,513l-.72,1.28h-7.15l-.14.3c2.17,1.23,4.36,2.44,6.53,3.69s4.61,1.69,6.53,3.23l-.09.53c-.46,0-1,.19-1.37,0-2.61-1.2-5.26-2.35-7.76-3.75a45.73,45.73,0,0,0-11.18-4.81c-.33-.08-.59-.39-1-.67a1.64,1.64,0,0,1,2.07-.45,9.1,9.1,0,0,0,4.21.42c2.22-.15,4.47,0,6.71,0,1,0,2.08.38,2.7-.92.11-.24,1.06-.27,1.51-.11,1.19.44,2.34,1,3.49,1.58,2.38,1.13,4.76,2.24,7.1,3.44a5,5,0,0,1,1.47,1.4c1.2,1.46,2.64,2.32,4.59,1.86,1.68-.4,3.51-.39,4.66-2.1.41-.61,1.26-.57,1.9.24-2,2.45-4.8,3.28-7.78,3.46a4.14,4.14,0,0,1-3.62-2c-.31-.43-.6-1-1-1.22-3.43-1.71-6.88-3.36-10.34-5A8.56,8.56,0,0,0,665.55,513Z" transform="translate(2 1)"/><path class="cls-3" d="M391.37,376.39c.54-.23,1-.61,1.42-.55a5.74,5.74,0,0,1,2,.77c3.41,2.06,6.83,4.1,10.17,6.26a26.73,26.73,0,0,1,4.91,3.76c2.55,2.68,6,4,8.9,6a37.6,37.6,0,0,1,6.73,5.3,14.7,14.7,0,0,1,1.51,1.85c2.59,3.93,5.13,7.89,7.73,11.81.86,1.3,1.86,2.52,2.84,3.84-.64.77-1.31.39-1.77-.14a32,32,0,0,1-2.45-3.24c-2.53-3.87-4.91-7.84-7.56-11.63a23.77,23.77,0,0,0-7.15-6.26c-2-1.26-4.14-2.38-6.16-3.65a14.09,14.09,0,0,1-2.59-2.1c-3-3.09-6.69-5.12-10.4-7.13-.63-.34-1.29-.64-1.9-1C395.63,379.07,393.71,377.85,391.37,376.39Z" transform="translate(2 1)"/><path class="cls-3" d="M514.91,509.09c-1,1-1.88.43-2.58.1-3.62-1.66-7.25-3.31-10.78-5.15a113.81,113.81,0,0,1-23-16.28c-2.07-1.83-4.2-3.59-6.35-5.33-.3-.25-.83-.18-1.26-.29s-.91-.15-.95-.33a1.69,1.69,0,0,1,.16-1.3,1.33,1.33,0,0,1,1.23-.33,11.43,11.43,0,0,1,2.39,1.56c3.27,2.8,6.49,5.66,9.77,8.46a103.55,103.55,0,0,0,22.61,14.68c2.45,1.17,5,2.16,7.44,3.27A7.94,7.94,0,0,1,514.91,509.09Z" transform="translate(2 1)"/><path class="cls-3" d="M390.19,370.32a16.51,16.51,0,0,1-2.43-.57c-3.63-1.42-7.24-2.93-10.87-4.37-6-2.39-12-4.74-18-7.16-1.63-.65-3.15-1.54-4.77-2.2a34.74,34.74,0,0,0-4.71-1.58,14.65,14.65,0,0,1-4.08-1.15c.37-1.12,1.1-.91,1.78-.78A32.7,32.7,0,0,1,357.2,356c2.25,1.29,4.91,1.84,7.34,2.83,7.31,3,14.59,6,21.89,9,.95.39,1.95.68,2.91,1.08a6.7,6.7,0,0,1,1.08.71Z" transform="translate(2 1)"/><path class="cls-3" d="M408.47,290.09c2.35-3.94,1.93-8,2.73-11.8a18.26,18.26,0,0,1,.39-2.11c1.67-5.09.16-9.87-1.43-14.63a6.27,6.27,0,0,1-.49-2.39c.32.26.78.44.95.77.87,1.7,1.68,3.44,2.49,5.18.13.28.08.73.28.89,1.64,1.3,1,3,.79,4.55-.73,4.9-1.57,9.77-2.32,14.66-.25,1.66-.36,3.33-.52,5-.07.78-.11,1.56-.17,2.49C409.4,292.38,410.15,290.3,408.47,290.09Z" transform="translate(2 1)"/><path class="cls-3" d="M368.29,319.09c.06-.48,0-.76.13-.91,6.61-8,10.16-17.27,11.77-27.37a73.59,73.59,0,0,0,.44-7.88,13.77,13.77,0,0,1,.1-2.14c.15-.75.64-1.07,1.47-.52-.27,3.86-.33,7.76-.86,11.59a56.12,56.12,0,0,1-10.43,25.42C370.34,318.08,369.79,319.06,368.29,319.09Z" transform="translate(2 1)"/><path class="cls-3" d="M407.21,611.12c-.56-.92-.34-1.46.46-1.59,2-.33,3.93-.58,5.9-.82a3.6,3.6,0,0,1,1.67.08c2.64,1,5.36.67,8.07.67,4,0,8,0,12,0a3.14,3.14,0,0,1,3,1.5,58.1,58.1,0,0,0,4.5,4.95,4,4,0,0,1,1.48,2.72c-1.06.23-1.46-.53-2-1.08-1.71-1.89-3.46-3.76-5.13-5.68a3.19,3.19,0,0,0-2.71-1.18q-7.18.11-14.39.05c-1.34,0-2.68-.29-4-.4a18.5,18.5,0,0,0-3.56-.16C410.74,610.34,409,610.77,407.21,611.12Z" transform="translate(2 1)"/><path class="cls-3" d="M335.61,321.47c.16-.63.28-1.28.5-1.89,1.68-4.65,3.65-9.21,5-14,1.12-4,1.51-8.15,2.2-12.24.17-1,.21-2.07.4-3.09s.74-1.14,1.53-.77c-1,11.33-3.61,22.12-8.77,32.18Z" transform="translate(2 1)"/><path class="cls-3" d="M358.13,306c-.39-1.17.31-1.52.85-1.95a56.92,56.92,0,0,0,11.85-12.4c2.19-3.19,4.05-6.5,4.42-10.45a1.75,1.75,0,0,1,.21-.67c.06-.12.24-.18.69-.48a4.76,4.76,0,0,1,.29,1.76,35.15,35.15,0,0,1-2.17,6.79c-3.49,6.68-8.73,11.92-14.52,16.65A7.36,7.36,0,0,1,358.13,306Z" transform="translate(2 1)"/><path class="cls-3" d="M401.73,361.61c-1.22,1.41-2.63,3.1-4.14,4.71-.48.51-1.16,1.16-2.18.35l4.89-5.34c-1.58-2.41-1.63-5.18-1.56-8,.05-2.23-.11-4.47,0-6.7a47.73,47.73,0,0,1,.76-5.42c.12-.68.36-1.43,1.41-1.2.06.24.21.49.15.68-1.77,5.3-.93,10.75-.87,16.14C400.22,358.25,401.08,359.66,401.73,361.61Z" transform="translate(2 1)"/><path class="cls-3" d="M425.41,401.4c-.83,1.68-1.57,3.41-2.49,5q-4.23,7.51-8.6,14.93c-.86,1.45-1,1.38-2.67,1.87.22-2,2.09-2.76,2.79-4.31s1.74-3,2.62-4.57,1.77-3,2.61-4.57,1.57-3.14,2.44-4.67,1-3.35,2.81-4.07Z" transform="translate(2 1)"/><path class="cls-3" d="M407.41,332.9c-.52.31-.79.6-1,.59-2.24-.09-4.19.88-6.2,1.63a2.58,2.58,0,0,1-2.59,0C399.3,333.26,405,331.83,407.41,332.9Z" transform="translate(2 1)"/><rect class="cls-4" x="0.5" y="0.5" width="202" height="544"/><polygon class="cls-1" points="926 196 668.55 200.33 681.41 225.2 945 212 926 196"/><polygon class="cls-1" points="932.61 238 675.16 242.33 688.02 267.2 951.61 254 932.61 238"/><polygon class="cls-1" points="937.61 326 680.16 330.33 693.02 355.2 956.61 342 937.61 326"/><polygon class="cls-1" points="720.72 355.79 717 137 711 137 716.84 365.37 720.72 355.79"/><polygon class="cls-1" points="893 355.79 889.28 137 883.28 137 889.13 365.37 893 355.79"/><polygon class="cls-1" points="932.98 280 675.53 284.33 688.39 309.2 951.98 296 932.98 280"/><polygon class="cls-1" points="921.98 151 664.53 155.33 677.39 180.2 940.98 167 921.98 151"/><line class="cls-1" x1="939.8" y1="159.17" x2="945.65" y2="387.54"/><polygon class="cls-5" points="889 137 885 1 879 1 883 137 889 137"/><polygon class="cls-5" points="716.99 137 712.99 1 706.99 1 710.99 137 716.99 137"/><polygon class="cls-5" points="926.34 101 668.89 105.33 681.75 130.2 945.34 117 926.34 101"/><polygon class="cls-5" points="922.34 58 664.89 62.33 677.75 87.2 941.34 74 922.34 58"/><polygon class="cls-5" points="922.34 15 664.89 19.33 677.75 44.2 941.34 31 922.34 15"/><path class="cls-6" d="M328,322s38,134,110,152-36.5-112.5-36.5-112.5" transform="translate(2 1)"/><path class="cls-7" d="M456.93,474.41S576.5,522.5,800.5,533.5" transform="translate(2 1)"/></svg>